# Blender 5.0.1
# www.blender.org
mtllib Medkit.mtl
o Cube
v -0.324569 0.256498 -0.647525
v -0.677042 -0.256498 -0.850085
v -0.527127 -0.256498 -1.000000
v 0.324665 0.256498 -0.647492
v 0.527042 -0.256498 -1.000000
v 0.677042 -0.256498 -0.850000
v -0.324532 0.256498 0.647487
v -0.527042 -0.256498 1.000000
v -0.677042 -0.256498 0.850000
v 0.324665 0.256498 0.647487
v 0.677042 -0.256498 0.850000
v 0.527042 -0.256498 1.000000
v 0.677042 -0.256498 0.510000
v 0.677042 -0.256498 0.170000
v 0.677042 -0.256498 -0.170000
v 0.677042 -0.256498 -0.510000
v 0.324858 0.256498 -0.509932
v 0.324858 0.256498 -0.170000
v 0.324858 0.256498 0.170000
v 0.324858 0.256498 0.509932
v -0.527127 0.085499 -1.000000
v -0.527127 -0.085499 -1.000000
v -0.677042 -0.085499 -0.850085
v -0.677042 0.085499 -0.850085
v 0.677042 0.085499 -0.850000
v 0.677042 -0.085499 -0.850000
v 0.527042 -0.085499 -1.000000
v 0.527042 0.085499 -1.000000
v -0.527042 -0.085499 1.000000
v -0.527042 0.085499 1.000000
v -0.677042 0.085499 0.850000
v -0.677042 -0.085499 0.850000
v 0.527042 0.085499 1.000000
v 0.527042 -0.085499 1.000000
v 0.677042 -0.085499 0.850000
v 0.677042 0.085499 0.850000
v 0.677042 0.085499 -0.510000
v 0.677042 -0.085499 -0.510000
v 0.677042 0.085499 -0.320000
v 0.677042 -0.085499 -0.320000
v 0.677042 0.085499 0.320000
v 0.677042 -0.085499 0.320000
v 0.677042 0.085499 0.510000
v 0.677042 -0.085499 0.510000
v 0.927042 0.085499 -0.510000
v 0.927042 -0.085499 -0.510000
v 0.927042 0.085499 -0.320000
v 0.927042 -0.085499 -0.320000
v 0.927042 0.085499 0.320000
v 0.927042 -0.085499 0.320000
v 0.927042 0.085499 0.510000
v 0.927042 -0.085499 0.510000
v 1.077042 0.085499 0.320000
v 1.077042 -0.085499 0.320000
v 1.077042 0.085499 -0.320000
v 1.077042 -0.085499 -0.320000
v -0.677042 0.256498 -0.850085
v -0.527127 0.256498 -1.000000
v 0.527042 0.256498 -1.000000
v 0.677042 0.256498 -0.850000
v -0.527042 0.256498 1.000000
v -0.677042 0.256498 0.850000
v 0.677042 0.256498 0.850000
v 0.527042 0.256498 1.000000
v 0.677042 0.256498 0.510000
v 0.677042 0.256498 -0.510000
v 0.677042 0.256498 -0.170000
v 0.677042 0.256498 0.170000
v 0.421769 0.256498 -0.744726
v 0.422097 0.256498 -0.510000
v 0.422097 0.256498 -0.170000
v 0.422097 0.256498 0.170000
v 0.422097 0.256498 0.510000
v 0.421769 0.256498 0.744726
v -0.421769 0.256498 0.744726
v -0.421811 0.256498 -0.744769
v 0.324858 0.256498 -0.000136
v -0.324551 0.256498 -0.000152
v -0.324553 0.256498 -0.072863
v 0.324858 0.256498 -0.073876
v 0.324858 0.256498 0.070816
v -0.324548 0.256498 0.072291
v 0.070720 0.256498 0.071393
v 0.070849 0.256498 -0.073480
v 0.070305 0.256498 0.647487
v 0.071262 0.256498 -0.647505
v -0.083153 0.256498 0.647487
v -0.083120 0.256498 0.071742
v -0.083110 0.256498 -0.073240
v -0.083077 0.256498 -0.647512
v -0.083132 0.256498 0.194709
v 0.070564 0.256498 0.194759
v -0.083099 0.256498 -0.214958
v 0.070977 0.256498 -0.215662
v 0.211184 0.256498 -0.073771
v 0.211771 0.256498 0.070968
v -0.214280 0.256498 0.072040
v -0.214810 0.256498 -0.073034
v 0.080167 0.290578 0.061927
v 0.061291 0.290578 0.061977
v 0.061270 0.290578 0.080853
v 0.070720 0.281140 0.071393
v 0.070849 0.281140 -0.073480
v 0.061419 0.290578 -0.082903
v 0.061403 0.290578 -0.064027
v 0.080279 0.290578 -0.064061
v -0.073683 0.290578 0.081159
v -0.073681 0.290578 0.062283
v -0.092557 0.290578 0.062326
v -0.083120 0.281140 0.071742
v -0.073671 0.290578 -0.082692
v -0.083110 0.281140 -0.073240
v -0.092548 0.290578 -0.063787
v -0.073672 0.290578 -0.063816
v -0.083132 0.281140 0.194709
v -0.073693 0.290578 0.185274
v 0.061138 0.290578 0.185318
v 0.070564 0.281140 0.194759
v -0.073662 0.290578 -0.205563
v -0.083099 0.281140 -0.214958
v 0.070977 0.281140 -0.215662
v 0.061531 0.290578 -0.206180
v 0.201785 0.290578 -0.064313
v 0.211184 0.281140 -0.073771
v 0.211771 0.281140 0.070968
v 0.202295 0.290578 0.061559
v -0.204876 0.290578 0.062581
v -0.214280 0.281140 0.072040
v -0.205338 0.290578 -0.063611
v -0.214810 0.281140 -0.073034
vn -0.7071 -0.0000 -0.7071
vn 0.7071 -0.0000 -0.7071
vn -0.0000 -0.0000 -1.0000
vn -0.7071 -0.0000 0.7071
vn -1.0000 -0.0000 -0.0000
vn 0.7071 -0.0000 0.7071
vn -0.0000 -0.0000 1.0000
vn 1.0000 -0.0000 -0.0000
vn -0.0000 1.0000 -0.0000
vn -0.0000 -1.0000 -0.0000
vn 0.7849 -0.0000 0.6196
vn 0.7849 -0.0000 -0.6196
vn 0.4090 0.8161 0.4084
vn 0.4077 0.8168 -0.4081
vn -0.4075 0.8168 0.4084
vn -0.4088 0.8163 -0.4082
vn 0.0021 0.7071 0.7071
vn -0.0015 0.7071 -0.7071
vn 0.7071 0.7071 0.0006
vn -0.7071 0.7071 -0.0001
vn 0.7071 0.7071 0.0009
vn -0.0002 0.7071 0.7071
vn -0.0032 0.7071 -0.7071
vn 0.7071 0.7071 -0.0029
vn 0.0016 0.7071 0.7071
vn -0.0011 0.7071 -0.7071
vn -0.7071 0.7071 0.0026
vn 0.0030 -0.0000 1.0000
vn 1.0000 -0.0000 0.0013
vn -0.0021 -0.0000 -1.0000
vn 1.0000 -0.0000 0.0009
vn 0.0023 -0.0000 1.0000
vn -1.0000 -0.0000 -0.0001
vn -0.0016 -0.0000 -1.0000
vn -0.0003 -0.0000 1.0000
vn -0.0046 -0.0000 -1.0000
vn 1.0000 -0.0000 -0.0041
vn -1.0000 -0.0000 0.0037
vt 0.101161 0.821232
vt 0.144813 0.821232
vt 0.144813 0.859541
vt 0.101161 0.859541
vt 0.847924 0.947847
vt 0.891576 0.947847
vt 0.891576 0.986143
vt 0.847924 0.986143
vt 0.057509 0.821232
vt 0.013857 0.821232
vt 0.013857 0.552126
vt 0.057509 0.552126
vt 0.804272 0.486161
vt 0.760620 0.486161
vt 0.760620 0.447850
vt 0.804272 0.447850
vt 0.760620 0.013857
vt 0.804272 0.013857
vt 0.259832 0.821210
vt 0.303484 0.821210
vt 0.303484 0.859526
vt 0.259832 0.859526
vt 0.216180 0.821210
vt 0.172528 0.821210
vt 0.172528 0.552126
vt 0.216180 0.552126
vt 0.804272 0.600670
vt 0.760620 0.600670
vt 0.760620 0.513875
vt 0.804272 0.513875
vt 0.269570 0.434425
vt 0.204882 0.434428
vt 0.204810 0.324188
vt 0.204777 0.287892
vt 0.240601 0.287967
vt 0.269620 0.287993
vt 0.269620 0.312532
vt 0.269620 0.399309
vt 0.732906 0.486142
vt 0.694636 0.524412
vt 0.425530 0.524412
vt 0.387239 0.486120
vt 0.387239 0.399326
vt 0.387239 0.312532
vt 0.387239 0.225737
vt 0.387239 0.138943
vt 0.387239 0.052149
vt 0.425530 0.013857
vt 0.694614 0.013857
vt 0.732906 0.052149
vt 0.804272 0.947847
vt 0.760620 0.947847
vt 0.760620 0.861053
vt 0.804272 0.861053
vt 0.760620 0.774258
vt 0.804272 0.812550
vt 0.760620 0.687464
vt 0.804272 0.649172
vt 0.891576 0.687464
vt 0.847924 0.649172
vt 0.847924 0.600670
vt 0.891576 0.600670
vt 0.331198 0.600629
vt 0.331198 0.552126
vt 0.395017 0.552126
vt 0.395017 0.600629
vt 0.891576 0.774258
vt 0.847924 0.812550
vt 0.891576 0.861053
vt 0.847924 0.861053
vt 0.331198 0.812509
vt 0.331198 0.764007
vt 0.395017 0.764007
vt 0.395017 0.812509
vt 0.847924 0.513875
vt 0.891576 0.513875
vt 0.259832 0.552126
vt 0.303484 0.552126
vt 0.216180 0.859526
vt 0.172528 0.859526
vt 0.891576 0.447850
vt 0.847924 0.447850
vt 0.847924 0.013857
vt 0.891576 0.013857
vt 0.891576 0.486161
vt 0.847924 0.486161
vt 0.101161 0.552126
vt 0.144813 0.552126
vt 0.804272 0.986143
vt 0.760620 0.986143
vt 0.057509 0.859541
vt 0.013857 0.859541
vt 0.433309 0.764007
vt 0.662215 0.743218
vt 0.705867 0.743218
vt 0.705867 0.807038
vt 0.662215 0.807038
vt 0.505933 0.904043
vt 0.462281 0.904043
vt 0.462281 0.840224
vt 0.505933 0.840224
vt 0.563134 0.764007
vt 0.563134 0.812509
vt 0.499315 0.812509
vt 0.499315 0.764007
vt 0.499315 0.552126
vt 0.499315 0.600629
vt 0.461023 0.600629
vt 0.662215 0.834752
vt 0.705867 0.834752
vt 0.705867 0.898571
vt 0.662215 0.898571
vt 0.577299 0.904043
vt 0.533647 0.904043
vt 0.533647 0.840224
vt 0.577299 0.840224
vt 0.563134 0.552126
vt 0.563134 0.600629
vt 0.461023 0.764007
vt 0.433309 0.600629
vt 0.634501 0.552126
vt 0.634501 0.600625
vt 0.590849 0.600625
vt 0.590849 0.552126
vt 0.634501 0.764002
vt 0.590849 0.764002
vt 0.634501 0.812509
vt 0.590849 0.812509
vt 0.705867 0.552126
vt 0.705867 0.715504
vt 0.662215 0.715504
vt 0.662215 0.552126
vt 0.079012 0.459257
vt 0.052127 0.524412
vt 0.013857 0.486142
vt 0.294359 0.459246
vt 0.359524 0.486120
vt 0.321233 0.524412
vt 0.079023 0.079023
vt 0.013857 0.052149
vt 0.052149 0.013857
vt 0.294359 0.079023
vt 0.321233 0.013857
vt 0.359524 0.052149
vt 0.294443 0.138943
vt 0.359524 0.138943
vt 0.294443 0.399326
vt 0.359524 0.399326
vt 0.294443 0.312532
vt 0.359524 0.312532
vt 0.294443 0.225737
vt 0.359524 0.225737
vt 0.269620 0.269169
vt 0.269620 0.251057
vt 0.269620 0.225737
vt 0.269620 0.138960
vt 0.269570 0.103846
vt 0.204638 0.103846
vt 0.165464 0.103846
vt 0.103845 0.103846
vt 0.103836 0.434433
vt 0.165483 0.434430
vt 0.103841 0.250680
vt 0.103840 0.269173
vt 0.103840 0.287735
vt 0.240751 0.251018
vt 0.204744 0.250910
vt 0.204704 0.219417
vt 0.165469 0.219430
vt 0.165472 0.250820
vt 0.131990 0.250744
vt 0.165475 0.287831
vt 0.165477 0.324009
vt 0.131855 0.287779
vt 0.384221 0.866419
vt 0.380934 0.869942
vt 0.377398 0.866668
vt 0.380809 0.866543
vt 0.407940 0.891676
vt 0.408066 0.895076
vt 0.404531 0.891802
vt 0.407815 0.888276
vt 0.353906 0.891867
vt 0.357439 0.895144
vt 0.354153 0.898669
vt 0.354030 0.895268
vt 0.384568 0.920317
vt 0.381160 0.920442
vt 0.377752 0.920567
vt 0.381035 0.917040
vt 0.405497 0.843631
vt 0.405382 0.840224
vt 0.247766 0.887240
vt 0.247766 0.923065
vt 0.245356 0.920660
vt 0.245356 0.889642
vt 0.172528 0.921116
vt 0.172528 0.889646
vt 0.174937 0.887240
vt 0.174937 0.923536
vt 0.211351 0.887240
vt 0.211351 0.923418
vt 0.208942 0.921006
vt 0.208942 0.889640
vt 0.921700 0.140111
vt 0.921700 0.171502
vt 0.919291 0.169094
vt 0.919291 0.142516
vt 0.919291 0.109982
vt 0.919291 0.083314
vt 0.921700 0.080904
vt 0.921700 0.112397
vt 0.605014 0.877054
vt 0.605014 0.842635
vt 0.607423 0.840224
vt 0.607423 0.879459
vt 0.434566 0.916341
vt 0.407679 0.945049
vt 0.407560 0.941652
vt 0.431152 0.916463
vt 0.428962 0.865584
vt 0.432363 0.865467
vt 0.013857 0.918330
vt 0.013857 0.889657
vt 0.016267 0.887255
vt 0.016266 0.920738
vt 0.284180 0.887240
vt 0.284180 0.920860
vt 0.281771 0.918445
vt 0.281771 0.889652
vt 0.358252 0.945049
vt 0.331198 0.919758
vt 0.334601 0.919641
vt 0.358133 0.941641
vt 0.124572 0.887255
vt 0.124572 0.923262
vt 0.118282 0.923262
vt 0.118282 0.887255
vt 0.334423 0.873789
vt 0.357828 0.848553
vt 0.927991 0.080904
vt 0.927991 0.112397
vt 0.254056 0.887240
vt 0.254056 0.923065
vt 0.181228 0.887240
vt 0.181228 0.923536
vt 0.022557 0.887255
vt 0.022557 0.920738
vt 0.927991 0.140111
vt 0.927991 0.171502
vt 0.217642 0.887240
vt 0.217642 0.923418
vt 0.290470 0.887240
vt 0.290470 0.920860
vt 0.613714 0.840224
vt 0.613714 0.879459
vt 0.925581 0.013857
vt 0.925581 0.053190
vt 0.919291 0.053190
vt 0.919291 0.013857
vt 0.090567 0.887255
vt 0.090567 0.924204
vt 0.084277 0.924204
vt 0.084277 0.887255
vt 0.056562 0.887255
vt 0.056562 0.924290
vt 0.050271 0.924290
vt 0.050272 0.887255
s 0
usemtl Material
f 22/1/1 3/2/1 2/3/1 23/4/1
f 26/5/2 6/6/2 5/7/2 27/8/2
f 21/9/3 58/10/3 59/11/3 28/12/3
f 30/13/4 61/14/4 62/15/4 31/16/4
f 31/16/5 62/15/5 57/17/5 24/18/5
f 34/19/6 12/20/6 11/21/6 35/22/6
f 33/23/7 64/24/7 61/25/7 30/26/7
f 43/27/8 65/28/8 63/29/8 36/30/8
f 4/31/9 86/32/9 94/33/9 84/34/9 95/35/9 80/36/9 18/37/9 17/38/9
f 2/39/10 3/40/10 5/41/10 6/42/10 16/43/10 15/44/10 14/45/10 13/46/10 11/47/10 12/48/10 8/49/10 9/50/10
f 25/51/8 60/52/8 66/53/8 37/54/8
f 37/54/8 66/53/8 67/55/8 39/56/8
f 39/56/8 67/55/8 68/57/8 41/58/8
f 41/58/8 68/57/8 65/28/8 43/27/8
f 14/59/8 42/60/8 44/61/8 13/62/8
f 41/63/9 43/64/9 51/65/9 49/66/9
f 15/67/8 40/68/8 42/60/8 14/59/8
f 40/68/8 39/56/8 41/58/8 42/60/8
f 16/69/8 38/70/8 40/68/8 15/67/8
f 37/71/9 39/72/9 47/73/9 45/74/9
f 6/6/8 26/5/8 38/70/8 16/69/8
f 26/5/8 25/51/8 37/54/8 38/70/8
f 13/62/8 44/61/8 35/75/8 11/76/8
f 44/61/8 43/27/8 36/30/8 35/75/8
f 12/20/7 34/19/7 29/77/7 8/78/7
f 34/19/7 33/23/7 30/26/7 29/77/7
f 64/24/6 33/23/6 36/79/6 63/80/6
f 33/23/6 34/19/6 35/22/6 36/79/6
f 9/81/5 32/82/5 23/83/5 2/84/5
f 32/82/5 31/16/5 24/18/5 23/83/5
f 8/85/4 29/86/4 32/82/4 9/81/4
f 29/86/4 30/13/4 31/16/4 32/82/4
f 3/2/3 22/1/3 27/87/3 5/88/3
f 22/1/3 21/9/3 28/12/3 27/87/3
f 60/52/2 25/51/2 28/89/2 59/90/2
f 25/51/2 26/5/2 27/8/2 28/89/2
f 58/10/1 21/9/1 24/91/1 57/92/1
f 21/9/1 22/1/1 23/4/1 24/91/1
f 47/73/9 55/93/9 45/74/9
f 39/94/7 40/95/7 48/96/7 47/97/7
f 38/98/3 37/99/3 45/100/3 46/101/3
f 40/102/10 38/103/10 46/104/10 48/105/10
f 52/106/10 50/107/10 54/108/10
f 43/109/7 44/110/7 52/111/7 51/112/7
f 42/113/3 41/114/3 49/115/3 50/116/3
f 44/117/10 42/118/10 50/107/10 52/106/10
f 50/107/10 48/105/10 56/119/10 54/108/10
f 53/120/9 55/93/9 47/73/9 49/66/9
f 52/121/11 54/122/11 53/123/11 51/124/11
f 54/122/8 56/125/8 55/126/8 53/123/8
f 46/127/12 45/128/12 55/126/12 56/125/12
f 51/65/9 53/120/9 49/66/9
f 48/105/10 46/104/10 56/119/10
f 48/129/5 50/130/5 49/131/5 47/132/5
f 76/133/9 58/134/9 57/135/9
f 69/136/9 60/137/9 59/138/9
f 76/133/9 69/136/9 59/138/9 58/134/9
f 75/139/9 62/140/9 61/141/9
f 75/139/9 76/133/9 57/135/9 62/140/9
f 74/142/9 64/143/9 63/144/9
f 74/142/9 75/139/9 61/141/9 64/143/9
f 73/145/9 74/142/9 63/144/9 65/146/9
f 69/136/9 70/147/9 66/148/9 60/137/9
f 70/147/9 71/149/9 67/150/9 66/148/9
f 71/149/9 72/151/9 68/152/9 67/150/9
f 72/151/9 73/145/9 65/146/9 68/152/9
f 4/31/9 17/38/9 70/147/9 69/136/9
f 17/38/9 18/37/9 71/149/9 70/147/9
f 18/37/9 80/36/9 77/153/9 81/154/9 19/155/9 72/151/9 71/149/9
f 19/155/9 20/156/9 73/145/9 72/151/9
f 10/157/9 85/158/9 87/159/9 7/160/9 75/139/9 74/142/9
f 20/156/9 10/157/9 74/142/9 73/145/9
f 1/161/9 90/162/9 86/32/9 4/31/9 69/136/9 76/133/9
f 7/160/9 82/163/9 78/164/9 79/165/9 1/161/9 76/133/9 75/139/9
f 80/36/9 95/35/9 96/166/9 81/154/9 77/153/9
f 81/154/9 96/166/9 83/167/9 92/168/9 85/158/9 10/157/9 20/156/9 19/155/9
f 85/158/9 92/168/9 91/169/9 87/159/9
f 87/159/9 91/169/9 88/170/9 97/171/9 82/163/9 7/160/9
f 89/172/9 93/173/9 90/162/9 1/161/9 79/165/9 98/174/9
f 93/173/9 94/33/9 86/32/9 90/162/9
f 97/171/9 98/174/9 79/165/9 78/164/9 82/163/9
f 99/175/13 100/176/13 101/177/13 102/178/13
f 103/179/14 104/180/14 105/181/14 106/182/14
f 107/183/15 108/184/15 109/185/15 110/186/15
f 111/187/16 112/188/16 113/189/16 114/190/16
f 126/191/17 99/175/17 102/178/17 125/192/17
f 124/193/18 103/194/18 106/195/18 123/196/18
f 122/197/19 104/198/19 103/199/19 121/200/19
f 105/181/9 100/176/9 99/175/9 106/182/9
f 100/176/9 108/184/9 107/183/9 101/177/9
f 104/180/9 111/187/9 114/190/9 105/181/9
f 113/189/9 109/185/9 108/184/9 114/190/9
f 120/201/20 112/202/20 111/203/20 119/204/20
f 110/205/20 115/206/20 116/207/20 107/208/20
f 101/209/21 117/210/21 118/211/21 102/212/21
f 117/213/22 116/214/22 115/215/22 118/216/22
f 121/217/23 120/218/23 119/219/23 122/220/23
f 123/221/24 126/191/24 125/192/24 124/222/24
f 109/223/25 127/224/25 128/225/25 110/226/25
f 112/227/26 130/228/26 129/229/26 113/230/26
f 130/231/27 128/232/27 127/233/27 129/234/27
f 83/235/28 96/236/28 125/237/28 102/238/28
f 126/191/9 123/221/9 106/182/9 99/175/9
f 100/176/9 105/181/9 114/190/9 108/184/9
f 116/239/9 117/240/9 101/177/9 107/183/9
f 92/241/29 83/242/29 102/212/29 118/211/29
f 95/243/30 84/244/30 103/194/30 124/193/30
f 104/180/9 122/220/9 119/219/9 111/187/9
f 84/245/31 94/246/31 121/200/31 103/199/31
f 97/247/32 88/248/32 110/226/32 128/225/32
f 88/249/33 91/250/33 115/206/33 110/205/33
f 109/185/9 113/189/9 129/234/9 127/233/9
f 93/251/33 89/252/33 112/202/33 120/201/33
f 89/253/34 98/254/34 130/228/34 112/227/34
f 91/255/35 92/256/35 118/216/35 115/215/35
f 94/257/36 93/258/36 120/259/36 121/260/36
f 96/261/37 95/262/37 124/263/37 125/264/37
f 98/265/38 97/266/38 128/267/38 130/268/38
